<svg viewBox="0 0 16 16" fill="none" class="icon icon-cart" xmlns="http://www.w3.org/2000/svg">
<path d="M14.875 4.15637H11.5938V4.00012C11.5938 3.047 11.2151 2.13292 10.5412 1.45896C9.86721 0.784998 8.95312 0.406372 8 0.406372C7.04688 0.406372 6.13279 0.784998 5.45884 1.45896C4.78488 2.13292 4.40625 3.047 4.40625 4.00012V4.15637H1.125C0.834919 4.15637 0.55672 4.27161 0.351602 4.47672C0.146484 4.68184 0.03125 4.96004 0.03125 5.25012V14.6251C0.03125 14.9152 0.146484 15.1934 0.351602 15.3985C0.55672 15.6036 0.834919 15.7189 1.125 15.7189H14.875C15.1651 15.7189 15.4433 15.6036 15.6484 15.3985C15.8535 15.1934 15.9688 14.9152 15.9688 14.6251V5.25012C15.9688 4.96004 15.8535 4.68184 15.6484 4.47672C15.4433 4.27161 15.1651 4.15637 14.875 4.15637ZM5.34375 4.00012C5.34375 3.29564 5.6236 2.62001 6.12175 2.12187C6.61989 1.62373 7.29552 1.34387 8 1.34387C8.70448 1.34387 9.38011 1.62373 9.87825 2.12187C10.3764 2.62001 10.6562 3.29564 10.6562 4.00012V4.15637H5.34375V4.00012ZM15.0312 14.6251C15.0312 14.6666 15.0148 14.7063 14.9855 14.7356C14.9562 14.7649 14.9164 14.7814 14.875 14.7814H1.125C1.08356 14.7814 1.04382 14.7649 1.01451 14.7356C0.985212 14.7063 0.96875 14.6666 0.96875 14.6251V5.25012C0.96875 5.20868 0.985212 5.16894 1.01451 5.13964C1.04382 5.11033 1.08356 5.09387 1.125 5.09387H4.40625V6.50012C4.40625 6.62444 4.45564 6.74367 4.54354 6.83158C4.63145 6.91949 4.75068 6.96887 4.875 6.96887C4.99932 6.96887 5.11855 6.91949 5.20646 6.83158C5.29436 6.74367 5.34375 6.62444 5.34375 6.50012V5.09387H10.6562V6.50012C10.6562 6.62444 10.7056 6.74367 10.7935 6.83158C10.8815 6.91949 11.0007 6.96887 11.125 6.96887C11.2493 6.96887 11.3685 6.91949 11.4565 6.83158C11.5444 6.74367 11.5938 6.62444 11.5938 6.50012V5.09387H14.875C14.9164 5.09387 14.9562 5.11033 14.9855 5.13964C15.0148 5.16894 15.0312 5.20868 15.0312 5.25012V14.6251Z" fill="#3A3A3A"/>
</svg>
