<svg width="33" height="32" viewBox="0 0 33 32" fill="none" xmlns="http://www.w3.org/2000/svg">
<rect x="32.0898" y="32" width="32.0889" height="32" rx="5" transform="rotate(-180 32.0898 32)" fill="white" fill-opacity="0.6"/>
<path d="M13.363 21.6671C13.2755 21.5778 13.2266 21.4579 13.2266 21.3331C13.2266 21.2083 13.2755 21.0884 13.363 20.9991L18.2495 16.0001L13.363 11.0021C13.2755 10.9128 13.2266 10.7929 13.2266 10.6681C13.2266 10.5433 13.2755 10.4234 13.363 10.3341C13.4055 10.2906 13.4563 10.256 13.5125 10.2323C13.5686 10.2087 13.629 10.1965 13.6899 10.1965C13.7508 10.1965 13.8112 10.2087 13.8673 10.2323C13.9235 10.256 13.9743 10.2906 14.0168 10.3341L19.2132 15.6511C19.3045 15.7445 19.3555 15.8697 19.3555 16.0001C19.3555 16.1305 19.3045 16.2557 19.2132 16.3491L14.0168 21.6661C13.9743 21.7097 13.9235 21.7443 13.8673 21.7679C13.8112 21.7915 13.7508 21.8037 13.6899 21.8037C13.629 21.8037 13.5686 21.7915 13.5125 21.7679C13.4563 21.7443 13.4055 21.7097 13.363 21.6661L13.363 21.6671Z" fill="#515151"/>
</svg>
