<svg width="33" height="32" viewBox="0 0 33 32" fill="none" xmlns="http://www.w3.org/2000/svg">
<rect width="32.0889" height="32" rx="5" fill="white" fill-opacity="0.6"/>
<path d="M18.7269 10.3329C18.8143 10.4222 18.8633 10.5421 18.8633 10.6669C18.8633 10.7917 18.8143 10.9116 18.7269 11.0009L13.8403 15.9999L18.7268 20.9979C18.8143 21.0872 18.8633 21.2071 18.8633 21.3319C18.8633 21.4567 18.8143 21.5766 18.7268 21.6659C18.6843 21.7094 18.6335 21.744 18.5774 21.7677C18.5212 21.7913 18.4609 21.8035 18.3999 21.8035C18.339 21.8035 18.2787 21.7913 18.2225 21.7677C18.1664 21.744 18.1156 21.7094 18.073 21.6659L12.8766 16.3489C12.7854 16.2555 12.7343 16.1303 12.7343 15.9999C12.7343 15.8695 12.7854 15.7443 12.8766 15.6509L18.073 10.3339C18.1156 10.2903 18.1664 10.2557 18.2225 10.2321C18.2787 10.2085 18.339 10.1963 18.3999 10.1963C18.4609 10.1963 18.5212 10.2085 18.5774 10.2321C18.6335 10.2557 18.6843 10.2903 18.7269 10.3339L18.7269 10.3329Z" fill="#515151"/>
</svg>
