<svg viewBox="0 0 16 16" class="icon icon-search" fill="none" xmlns="http://www.w3.org/2000/svg">
<path d="M14.6938 15.3252C15.0771 15.7085 15.6687 15.1168 15.2854 14.7418L12.1604 11.6085C13.2566 10.3956 13.8625 8.81837 13.8604 7.18351C13.8604 3.52517 10.8854 0.550171 7.22708 0.550171C3.56875 0.550171 0.59375 3.52517 0.59375 7.18351C0.59375 10.8418 3.56875 13.8168 7.22708 13.8168C8.87708 13.8168 10.4021 13.2085 11.5688 12.2002L14.6938 15.3252ZM1.42625 7.18351C1.42625 3.98351 4.03458 1.3835 7.22625 1.3835C10.4263 1.3835 13.0263 3.98351 13.0263 7.18351C13.0263 10.3835 10.4263 12.9835 7.22625 12.9835C4.03458 12.9835 1.42625 10.3835 1.42625 7.18351Z" fill="#3A3A3A"/>
</svg>
