<svg viewBox="0 0 18 16" fill="none" class="icon wishlist-icon" xmlns="http://www.w3.org/2000/svg">
<path d="M12.9062 0.656372C11.2656 0.656372 9.83906 1.39622 9 2.63606C8.16094 1.39622 6.73438 0.656372 5.09375 0.656372C3.85099 0.657819 2.65955 1.15214 1.78079 2.03091C0.902022 2.90967 0.407697 4.10111 0.40625 5.34387C0.40625 7.62512 1.82812 9.99934 4.63281 12.3993C5.91801 13.4945 7.30626 14.4625 8.77813 15.29C8.84634 15.3266 8.92257 15.3458 9 15.3458C9.07743 15.3458 9.15366 15.3266 9.22187 15.29C10.6937 14.4625 12.082 13.4945 13.3672 12.3993C16.1719 9.99934 17.5938 7.62512 17.5938 5.34387C17.5923 4.10111 17.098 2.90967 16.2192 2.03091C15.3405 1.15214 14.149 0.657819 12.9062 0.656372ZM9 14.3368C7.71797 13.597 1.34375 9.697 1.34375 5.34387C1.34478 4.34963 1.7402 3.3964 2.44324 2.69336C3.14628 1.99033 4.09951 1.59491 5.09375 1.59387C6.67812 1.59387 8.00859 2.43997 8.56641 3.80247C8.60172 3.88844 8.6618 3.96197 8.739 4.01372C8.81621 4.06547 8.90706 4.09311 9 4.09311C9.09294 4.09311 9.18379 4.06547 9.261 4.01372C9.3382 3.96197 9.39828 3.88844 9.43359 3.80247C9.99141 2.43997 11.3219 1.59387 12.9062 1.59387C13.9005 1.59491 14.8537 1.99033 15.5568 2.69336C16.2598 3.3964 16.6552 4.34963 16.6562 5.34387C16.6562 9.697 10.282 13.597 9 14.3368Z" fill="#3A3A3A"/>
</svg>
